<svg xmlns="http://www.w3.org/2000/svg" viewBox="0 0 512 512" role="img" aria-labelledby="title desc">
  <title id="title">Univ E-Learning logo</title>
  <desc id="desc">A modern shield with an open book and rising learning spark.</desc>
  <defs>
    <linearGradient id="shield" x1="72" y1="64" x2="440" y2="448" gradientUnits="userSpaceOnUse">
      <stop offset="0" stop-color="#0f172a"/>
      <stop offset="0.46" stop-color="#1d4ed8"/>
      <stop offset="1" stop-color="#14b8a6"/>
    </linearGradient>
    <linearGradient id="pageLeft" x1="124" y1="214" x2="256" y2="342" gradientUnits="userSpaceOnUse">
      <stop offset="0" stop-color="#ffffff"/>
      <stop offset="1" stop-color="#dbeafe"/>
    </linearGradient>
    <linearGradient id="pageRight" x1="256" y1="214" x2="388" y2="342" gradientUnits="userSpaceOnUse">
      <stop offset="0" stop-color="#ffffff"/>
      <stop offset="1" stop-color="#ccfbf1"/>
    </linearGradient>
    <filter id="softShadow" x="-20%" y="-20%" width="140%" height="150%">
      <feDropShadow dx="0" dy="18" stdDeviation="18" flood-color="#020617" flood-opacity="0.28"/>
    </filter>
  </defs>

  <rect width="512" height="512" rx="112" fill="#0b1020"/>
  <path d="M256 62 407 122v124c0 93-61 164-151 204-90-40-151-111-151-204V122L256 62Z" fill="url(#shield)" filter="url(#softShadow)"/>
  <path d="M256 92 378 141v101c0 75-47 134-122 170-75-36-122-95-122-170V141l122-49Z" fill="none" stroke="#f8fafc" stroke-opacity="0.18" stroke-width="10"/>

  <path d="M256 230c-29-27-70-42-122-42v130c52 0 93 16 122 48V230Z" fill="url(#pageLeft)"/>
  <path d="M256 230c29-27 70-42 122-42v130c-52 0-93 16-122 48V230Z" fill="url(#pageRight)"/>
  <path d="M256 230v136" stroke="#1e40af" stroke-width="10" stroke-linecap="round"/>
  <path d="M150 217c36 3 67 13 94 31M150 257c35 3 67 13 94 31M362 217c-36 3-67 13-94 31M362 257c-35 3-67 13-94 31" stroke="#334155" stroke-opacity="0.36" stroke-width="9" stroke-linecap="round"/>

  <path d="M256 143 315 170 256 198 197 170l59-27Z" fill="#fbbf24"/>
  <path d="M315 170v44" stroke="#f59e0b" stroke-width="10" stroke-linecap="round"/>
  <circle cx="315" cy="226" r="10" fill="#f59e0b"/>
  <path d="M256 108v24M350 122l-17 17M162 122l17 17" stroke="#fef3c7" stroke-width="10" stroke-linecap="round"/>
</svg>
