<svg xmlns="http://www.w3.org/2000/svg" viewBox="0 0 512 512" role="img" aria-labelledby="title desc">
  <title id="title">Univ E-Learning logo</title>
  <desc id="desc">A clean education mark combining a U monogram with an open book.</desc>
  <rect width="512" height="512" rx="104" fill="#111827"/>
  <path d="M112 128h64v164c0 49 31 80 80 80s80-31 80-80V128h64v168c0 86-58 140-144 140s-144-54-144-140V128Z" fill="#f8fafc"/>
  <path d="M160 162h64v168c0 27 13 42 32 42s32-15 32-42V162h64v132c0 61-39 100-96 100s-96-39-96-100V162Z" fill="#111827"/>
  <path d="M128 142h108c38 0 71 11 96 32v172c-25-21-58-32-96-32H128V142Z" fill="#2563eb"/>
  <path d="M276 174c25-21 58-32 96-32h12v172h-12c-38 0-71 11-96 32V174Z" fill="#14b8a6"/>
  <path d="M256 174v172" stroke="#f8fafc" stroke-width="18" stroke-linecap="round"/>
  <path d="M154 184h64M154 228h64M154 272h64M322 184h36M322 228h36M322 272h36" stroke="#f8fafc" stroke-width="14" stroke-linecap="round" opacity="0.88"/>
  <path d="M256 92 330 126 256 160 182 126l74-34Z" fill="#f59e0b"/>
</svg>
